PathFileType	4	(X/Y/Z)	6_coords_data.trc
DataRate	CameraRate	NumFrames	NumMarkers	Units	OrigDataRate	OrigDataStartFrame	OrigNumFrames
30.0	30.0	8	21	m	30.0	42	72
Frame#	Time	THUMB_TIP	THUMB_IP	THUMB_MCP	THUMB_CMC	INDEX_TIP	INDEX_DIP	INDEX_PIP	INDEX_MCP	MIDDLE_TIP	MIDDLE_DIP	MIDDLE_PIP	MIDDLE_MCP	RING_TIP	RING_DIP	RING_PIP	RING_MCP	PINKY_TIP	PINKY_DIP	PINKY_PIP	PINKY_MCP	WRIST
X1	Y1	Z1	X2	Y2	Z2	X3	Y3	Z3	X4	Y4	Z4	X5	Y5	Z5	X6	Y6	Z6	X7	Y7	Z7	X8	Y8	Z8	X9	Y9	Z9	X10	Y10	Z10	X11	Y11	Z11	X12	Y12	Z12	X13	Y13	Z13	X14	Y14	Z14	X15	Y15	Z15	X16	Y16	Z16	X17	Y17	Z17	X18	Y18	Z18	X19	Y19	Z19	X20	Y20	Z20	X21	Y21	Z21
40	1.3666666666666607	0.4955172106916236	-0.03031165916303813	-0.16987968173651619	0.49090331566628154	-0.032208711511442	-0.1474494974955756	0.4718074492964529	-0.02960174109451008	-0.12300831109166126	0.4717203113219509	-0.02882016765839246	-0.07840706054935748	0.5680198403910248	0.030055767735784666	-0.17078205581238043	0.553434305826012	0.026629059476929506	-0.16060758521379356	0.5337869501649101	0.020830397007107315	-0.1460347762159634	0.5033369356524633	0.008062568973488338	-0.11913839583689151	0.5950106690365158	0.03661388730915549	-0.14064890553322637	0.5786465375582693	0.03386633322460553	-0.13339176094908473	0.5527106262342462	0.02874832383020054	-0.12112212225712679	0.5155137663252559	0.015796016008451486	-0.10003233193096148	0.604218273025074	0.033653130037458956	-0.10750306631651288	0.5876619209946531	0.028828676365355577	-0.10224836801779902	0.564832226865983	0.021730313908598586	-0.09527712025116009	0.5278505470952812	0.010831255556283725	-0.08309981667565108	0.6040245989775505	0.0069389317105835735	-0.0757273708376971	0.5873287401206593	0.0063293257480050436	-0.07200222955163099	0.5667249592953583	0.005354229962647228	-0.06808490611434148	0.5311728185043648	0.0007032498357101291	-0.06417375282710952	0.4622830810018608	-0.023011742144276925	-0.051989820119430985
41	1.3999999999999937	0.4963309705749779	-0.02894423798221124	-0.16977035808171442	0.4917559929885673	-0.03124113272079032	-0.14736960241044905	0.47259058799965625	-0.029152221139883694	-0.12293307851652786	0.47194284245773166	-0.028799785207102024	-0.0783309909574662	0.5690115236822316	0.029598391943976843	-0.1698972602688468	0.5542790436122872	0.026261391955392344	-0.15990634128884917	0.5344285071111387	0.020595366006859073	-0.14555844306063762	0.5036157033313766	0.007985766510076875	-0.11900274277311694	0.5955313079181177	0.03618979813755474	-0.14000270669244536	0.5791068055934859	0.0335603713755116	-0.13283878051393022	0.5530759931670659	0.028601439052908795	-0.12070554744766214	0.5157205156344544	0.015770587673726855	-0.0998228878422403	0.6046452951213303	0.03296185394544937	-0.10691936849929923	0.5880201435221193	0.028325545204352154	-0.10171274045799689	0.565091826443574	0.021476730401787214	-0.09481593027169608	0.5279732239261978	0.010866520715085981	-0.08280120465846319	0.6041292254264023	0.006226536776592129	-0.07544060413075912	0.5874315494312514	0.005791923694537071	-0.07169911674873233	0.5668212166184601	0.005034983304983531	-0.06776805562066038	0.5312303616304832	0.000704772226671535	-0.06384074556897357	0.462283081001861	-0.023011742144276925	-0.051989820119430985
42	1.4333333333333271	0.49765273637622	-0.02747263015105661	-0.16950270144852245	0.49306056653451946	-0.030176288816281316	-0.14715091838839656	0.4737564139579825	-0.028713182214201494	-0.12277820798572009	0.47231355662732444	-0.028793582182465527	-0.07819343818067931	0.5705320112483356	0.02869372639614709	-0.16852546282546366	0.5555612758628737	0.025569744884180845	-0.15882402883190505	0.5353843652003362	0.020181374379664385	-0.14482875918741323	0.5039821117878265	0.007917214512256243	-0.11880713438489224	0.5963086297900558	0.03525945492509175	-0.13909569149458173	0.5797874560407985	0.032891808853774074	-0.13206397264156858	0.5535989037870496	0.028295775896837516	-0.12012890825500515	0.515981722646507	0.015756292436597374	-0.09954112161850695	0.6052153511821147	0.03191126979826353	-0.10615159396712567	0.5884899695236041	0.027588266901605762	-0.10099666871716817	0.5654181090485044	0.021144095165308907	-0.09418918137963647	0.5281085169010497	0.010989773750676557	-0.08237372859952996	0.6042316648945204	0.005184627608887382	-0.07503076105640766	0.5875374453208486	0.005063308442510239	-0.07125077236781349	0.566922132002409	0.004663423317341597	-0.06729337831752749	0.5312789996531725	0.0008032077677004867	-0.06335011783347116	0.4622830810018608	-0.023011742144276925	-0.051989820119430985
43	1.4666666666666603	0.4994971263600534	-0.02599668930211274	-0.16904879216201973	0.49482211792329	-0.029104149507596655	-0.14676678176826202	0.47530154571800354	-0.028318278556774712	-0.12253561036391485	0.4728079176663049	-0.02878971692926746	-0.07799967470516031	0.5725436373562776	0.0271673422379497	-0.16666206374276343	0.5572502615381637	0.02443231291761183	-0.15735441792317917	0.5366172238959529	0.019552494914172547	-0.14384608838513419	0.5043956071500288	0.007891814696577293	-0.11855909478878549	0.5973124531662427	0.03363334143454377	-0.1379723811573705	0.5806658234850047	0.03171623440495841	-0.13110110610154269	0.554262302095286	0.027757686007535476	-0.11941378379025472	0.5162612849259572	0.01579860707113645	-0.09918877338013718	0.6058923971476298	0.03030785880065312	-0.1053672402822958	0.5890377211592615	0.026499957471778468	-0.10022722230599662	0.565783156691101	0.020690196028276375	-0.09347060463398307	0.5282408918647048	0.011213762592344967	-0.08183031275451966	0.6042995613240475	0.0037365092827698065	-0.07461274838449417	0.5876268390071929	0.004072032074098231	-0.07075169218164537	0.5670214223928455	0.004178205815286717	-0.06672458996220051	0.5313182174042864	0.000972976848040985	-0.06273822422227462	0.4622830810018608	-0.023011742144276925	-0.051989820119430985
44	1.4999999999999936	0.5017751839602378	-0.02463323947586238	-0.16835786824586513	0.49695679115043556	-0.028112054708528955	-0.14616145107310013	0.4771022698267854	-0.028003766412662445	-0.12219050497884473	0.4734104952482332	-0.028811733964714592	-0.07774269300912018	0.5749427627308413	0.024911174640385392	-0.16431113540400888	0.559258556554955	0.022757548211879475	-0.15551525171681013	0.5380638390288222	0.018654344388771893	-0.1426328024010366	0.5048207149617804	0.007925972158099648	-0.11827232569093486	0.598489880842289	0.0311860877709772	-0.13664899713049078	0.5817019941795456	0.029940585783961637	-0.12996950716499023	0.5550452938292398	0.02695249054573623	-0.11857208801496748	0.516543780047575	0.01588900097213941	-0.09878874765052997	0.6066572141195619	0.027986605364130668	-0.10459228971141366	0.5896590223307113	0.024915298499495475	-0.09943200386151133	0.5661860942100366	0.020044973853657222	-0.0926880019126845	0.528375758064848	0.011500468686870047	-0.08119492808352097	0.6042917991445574	0.0018376034061171609	-0.0742289686259901	0.5876738791925302	0.0027833534795798087	-0.07023518680088287	0.5671078536667835	0.003562106261561504	-0.0660825783220001	0.5313482249628246	0.0011988331901799931	-0.06201473536226282	0.4622830810018609	-0.023011742144276925	-0.051989820119430985
45	1.5333333333333266	0.5046280836890511	-0.023392786862560966	-0.1673788609916171	0.49950107746288797	-0.02718332424663028	-0.14530295481549704	0.47917452509239	-0.027749562279961282	-0.12173750037008021	0.47409086800067857	-0.02883254644963007	-0.07743317128293414	0.5774725052753308	0.022002522642643796	-0.1615789022095637	0.5613780823256294	0.02062132879712686	-0.1533897720068359	0.539581171280781	0.0175376434995278	-0.14124912182291482	0.5052111855782464	0.008059388479244256	-0.1179574310603694	0.5996750795614514	0.027931184590102576	-0.13519399843841595	0.5827563816561239	0.027584794734366924	-0.12874127225050838	0.55584794565121	0.025887038592706912	-0.1176749609475984	0.5167679902114918	0.01607514995659054	-0.098371286550684	0.6073481494711933	0.024993939222861417	-0.10394858754034916	0.5902231999344529	0.022884277704303457	-0.09872504165261992	0.5665403720394043	0.019253378300850832	-0.09193385534862841	0.5284527791017016	0.0119094476763284	-0.08052671805682488	0.6041132373254248	-0.0004349721415439767	-0.07410278075681942	0.5876065880522803	0.0012524504192857888	-0.06989764878806978	0.567131526813357	0.002855960126910251	-0.06553729984791626	0.5313423377592079	0.0015104085740966777	-0.06127034673531978	0.462283081001861	-0.023011742144276925	-0.051989820119430985
46	1.5666666666666598	0.5080784537640805	-0.022228323213062007	-0.1660349736694941	0.5024456171639319	-0.026264817729018564	-0.14412657656110933	0.48147519205303846	-0.027566492816301413	-0.12116210590238176	0.47482135035008777	-0.02887114416121095	-0.07707226267902362	0.5798722448380074	0.018666199279134488	-0.15858097382834074	0.5633974161332006	0.01820415284381971	-0.1510732090318856	0.5410237380820909	0.016333640487281254	-0.13976261457406308	0.5055350875541756	0.008271315654275857	-0.11764495882137052	0.6006924224477493	0.024063988120438196	-0.13367440626965943	0.5836923460010249	0.024797769165508465	-0.1274728769273582	0.5565871168055807	0.024633688992567904	-0.11676357359057274	0.5169176125091385	0.01637060988280392	-0.09794337503953879	0.6078195400755946	0.02144282831556954	-0.10350866561070896	0.5906232261381031	0.020485639462220373	-0.098182261902553	0.5667919745993997	0.018333114125832273	-0.09128167759575304	0.5284616446039982	0.01243728630161356	-0.07984726240691162	0.6036950770059484	-0.002933416087949392	-0.07439927303062441	0.58737958591108	-0.0004076006591430259	-0.06987986966813636	0.5670672018601529	0.0021076809134559227	-0.0652009347703	0.5313036550848178	0.0018849058705863175	-0.060531615298610814	0.4622830810018609	-0.023011742144276925	-0.051989820119430985
47	1.599999999999993	0.5120256751900787	-0.02113614474370551	-0.16430205680407337	0.5056953980509282	-0.025349814312405128	-0.14261859351733414	0.48392581562597337	-0.027418894705670827	-0.12046855542776663	0.4755983004903225	-0.02887102386576179	-0.0766686260606099	0.5819551744388161	0.015242241009600366	-0.15543731642442488	0.5651714037411872	0.01577428202254283	-0.1486533667245844	0.5423080463286555	0.015199774889084305	-0.1382156149369419	0.5057968764818711	0.008617544383223708	-0.11730521532366397	0.601419463377891	0.01988576951839094	-0.1321020706607559	0.5844135009191554	0.021804607989656555	-0.1261762542804361	0.5572040907278801	0.02331923133068059	-0.11584361361225484	0.5169938678304368	0.016777692807816713	-0.09749983621249841	0.6079767004993237	0.01756426105967146	-0.10322015760603104	0.5907958415603352	0.01787795910201828	-0.0977685817185645	0.566917053903455	0.01734518946524166	-0.09071878487384893	0.5284089858194991	0.013059404292065868	-0.07916536235535687	0.6030203503601285	-0.005499778955105561	-0.07508891275533469	0.5869795787919777	-0.0021034478819287328	-0.07017377463522229	0.5669057954567175	0.0013593374031137806	-0.06508807314194553	0.5312372486618167	0.002299492834217265	-0.05981983545697528	0.462283081001861	-0.023011742144276925	-0.051989820119430985
